# xmcd
#
# Track frame offsets:
#	150
#	22740
#	49023
#	71774
#	95722
#	113416
#	145741
#	173397
#
# Disc length: 2794 seconds
#
# Revision: 2
# Processed by: cddbd v1.5.2PL0 Copyright (c) Steve Scherf et al.
# Submitted via: EZCDDA 4.3.2
#
DISCID=5b0ae808
DTITLE=Thrudvangar - Zwischen Asgard Und Midgard
DYEAR=1900
DGENRE=
TTITLE0=Thor
TTITLE1=Bärenpelz Und Wolfsmantel
TTITLE2=Heimwärts
TTITLE3=Runenstein
TTITLE4=Midsommernacht
TTITLE5=Zwei Raben
TTITLE6=Siegvater
TTITLE7=Frostland
EXTD=
EXTT0=
EXTT1=
EXTT2=
EXTT3=
EXTT4=
EXTT5=
EXTT6=
EXTT7=
PLAYORDER=
